<svg width="91" height="52" fill="none" xmlns="http://www.w3.org/2000/svg"><path d="M90.143 25.562c.277 1.13-.794 3.144-.287 5.271.272 1.154-1.018 1.49-1.899 1.874a27192.365 27192.365 0 0 1-37.84 16.516c-1.334.58-2.648 1.212-4.001 1.748-1.733.686-2.678.038-2.721-1.811-.044-1.947-.073-3.894 0-5.841.043-1.295-.39-2.113-1.636-2.624a227.98 227.98 0 0 1-8.24-3.583c-1.31-.593-1.46-.126-1.826 1.12-.857 2.92.355 4.23 2.989 4.892.62.188 1.198.498 1.698.91a1.66 1.66 0 0 1 .429 2.19 1.46 1.46 0 0 1-1.855.745c-.622-.178-1.23-.4-1.82-.666-10.159-4.46-20.293-8.966-30.48-13.352-1.924-.828-2.78-1.923-2.639-4.03.117-2.183.117-4.37 0-6.552-.058-1.504.52-2.395 1.908-2.999 13.81-6.003 27.602-12.034 41.374-18.092a3.992 3.992 0 0 1 3.476 0c13.712 6.02 27.419 12.056 41.184 17.966 2.819 1.212 1.787 3.431 2.186 6.318Zm-24.007 3.076c-6.605-1.07-12.758-2.059-18.906-3.081-1.265-.21-2.628-.214-3.675-1.1-3.64-3.096-7.262-6.22-10.879-9.341-.895-.774-1.368-1.708-.418-2.716.832-.881 1.786-.604 2.609.083 1.684 1.397 3.529 2.657 4.96 4.283 3.894 4.45 8.932 6.04 14.602 6.474 1.568.117 2.376-.238 3.14-1.5 1.26-2.073 2.663-4.064 4.001-6.089.687-1.036 1.538-1.864 2.79-1.027 1.25.838.768 1.977.121 2.99-1.051 1.64-2.083 3.29-3.217 4.867-1.042 1.46-.56 1.883 1.017 2.098 2.804.374 5.598.886 8.392 1.367a5.769 5.769 0 0 0 3.558-.287c2.35-1.09 4.765-2.05 7.121-3.125.608-.272 1.65-.292 1.577-1.207-.049-.691-.973-.764-1.543-1.017-7.413-3.262-14.87-6.44-22.24-9.799-1.947-.89-3.548-.949-5.48.03-3.466 1.752-7.068 3.236-10.607 4.867-.974.453-1.947.56-2.522-.526-.618-1.178 0-2.005 1.081-2.53.735-.346 1.46-.663 2.215-1.008l8.085-3.787c-2.132-.974-3.739-1.7-5.306-2.483a3.554 3.554 0 0 0-3.247 0A18362.192 18362.192 0 0 1 8.377 20.32c-.486.215-1.255.263-1.255.974 0 .71.725.774 1.221.974 3.86 1.693 7.788 3.27 11.56 5.11a7.789 7.789 0 0 0 6.723.331c3.407-1.319 6.902-2.355 10.378-3.46 1.105-.35 2.205-.195 2.565 1.095.316 1.134-.443 1.854-1.46 2.2-2.371.823-4.77 1.558-7.146 2.37-.72.249-1.636.23-2.069 1.334 4.673 2.064 9.36 4.06 13.975 6.206a4.813 4.813 0 0 0 4.38-.039c5.024-2.263 10.106-4.38 15.134-6.644 1.173-.52 2.478-.803 3.753-2.132Zm-4.77 8.557c0 3.354 0 3.369 2.813 2.142 2.434-1.061 4.805-2.356 7.302-3.174 2.594-.842 3.714-2.078 3.047-4.94-.322-1.383-.41-1.835-1.845-1.164a151.17 151.17 0 0 1-9.302 4.075c-1.597.637-2.351 1.547-2.015 3.061Zm-2.118 4.26c-.973-1.057-1.46-2.001-1.333-3.228.18-1.655-.696-1.411-1.743-.934-2.137.973-4.225 2.083-6.45 2.76-2.618.798-3.26 2.404-2.964 4.867.156 1.29.516 1.83 1.791 1.266a1209.65 1209.65 0 0 0 10.7-4.732ZM15.44 34.687c3.992 1.748 7.618 3.35 11.259 4.917.453.19.973.681 1.46 0 .842-1.212-.146-4.81-1.523-5.432-2.361-1.067-4.78-2.01-7.107-3.145-1.728-.842-2.585-.667-2.434 1.46.117 1.057-.633 1.543-1.66 2.2h.005Zm-1.728-3.84c.487-1.816-.56-2.828-2.434-3.436-1.46-.487-2.803-1.256-4.234-1.816-1.018-.4-2.137-1.553-3.106-.784-.968.77-.326 2.278-.414 3.461-.087 1.183.745 1.524 1.578 1.889 2 .876 4 1.742 6.006 2.614 2.595 1.129 2.595 1.129 2.6-1.928h.004Zm72.892-3.47c-.253-3.252-.253-3.252-3.028-2.035-.885.39-1.776.769-2.657 1.173-3.164 1.46-3.407 1.908-3.028 5.306.112 1.046.453 1.265 1.358.87 1.845-.807 3.685-1.645 5.559-2.394 1.47-.589 2.808-1.183 1.791-2.92h.005Z" fill="#9E7B56"/></svg>