<svg width="76" height="73" fill="none" xmlns="http://www.w3.org/2000/svg"><path d="M68.37 6.76c1.047-.202 1.92-.914 3.085-.88.98 0 2.106-.325 1.916-1.635-.168-1.16-.622-2.325-2.201-2.24H5.64c-2.442 0-3.36.957-2.643 2.8.15.403.56 1.12.666 1.075 1.932-.633 3.635 1.58 5.646.38.666-.397 1.68-.318 2.492-.318H63.89a8.737 8.737 0 0 1 4.2.851m-.84 7.247H15.163c-2.05 0-4.106-.173-6.161-.268M58.848 43.45c-3.36-.168-6.721.168-10.081.19-2.986 0-5.915-.66-8.962 0a14.69 14.69 0 0 1-6.978-.486c-1.68-.465-3.182.38-4.75.498-3.293.24-6.575-1.423-9.83.045a2.705 2.705 0 0 1-1.932 0c-3.724-1.507-7.494.213-11.201-.247-1.916-.235-2.52.61-2.582 2.52-.062 2.084 1.042 2.241 2.582 2.241h19.043c1.613 0 3.304-.196 4.738.605 1.434.8 2.24-.667 3.36-.594 4.48.291 9.006-.655 13.442.56 1.68.448 3.086-.666 4.76-.621 6.162.157 12.323.061 18.484.061 4.794 0 4.794 0 4.48-4.76v-.84M2 69.074c7.471-.045 14.937 0 22.403-.174 3.086-.067 6.25-1.08 9.214-.61 1.988.32 4.043-.717 5.92.487 1.159.74 2.19-.52 3.36-.409 9.88.919 19.788.56 29.685.499 1.747 0 1.377.823 1.4 1.747M43.727 21.882v20.723m10.64-20.723v20.723m8.682-20.723c.6 4.004.173 8.026.269 12.041.067 2.896 0 5.786 0 8.682M21.883 21.882v20.723m10.642-20.723v17.642c0 1.025-.174 2.056-.27 3.08" stroke="#9E7B56" stroke-width="3" stroke-linecap="round" stroke-linejoin="round"/><path d="M67.249 21.047c-2.8 0-5.696-.476-8.401-.117-3.54.47-6.979-.56-10.367-.068-3.977.56-7.903-.493-11.762 0-3.333.437-6.576-.24-9.807 0-3.585.264-7.102-.045-10.642-.078-2.7 0-3.327.66-3.36 3.36-.034 3.826-.05 7.657 0 11.482a27.329 27.329 0 0 1-.56 6.721m26.336 11.745a10.168 10.168 0 0 0-1.966-1.12c-1.68-.521-2.761.336-2.8 2.24-.04 4.2 0 8.401 0 12.602m-4.196-18.488c.734 2.52-.168 5.04-.044 7.56.179 3.636.044 7.282.044 10.922m16.522-18.482c-.734 2.369.392 4.654.297 7-.151 3.826-.202 7.657-.297 11.482" stroke="#9E7B56" stroke-width="3" stroke-linecap="round" stroke-linejoin="round"/><path d="M42.606 68.094c-.628-3.159-.118-6.351-.275-9.521-.033-.745.196-1.569-.05-2.24-.37-.986 0-2.504-1.91-2.583-2.016-.084-2.01 1.372-2.201 2.571a23.12 23.12 0 0 0-.045 3.635v8.121M8.44 21.047c-.778 1.417-.56 2.968-.56 4.48.08 4.017-.268 8.038.27 12.042M68.369 7.045c-.118 2.168.37 4.397-.796 6.469a2.01 2.01 0 0 0 .27 1.63 2.8 2.8 0 0 1 .498 2.24c-.997 3.282.224 6.536.067 9.807-.157 3.271-.04 6.536-.04 9.802m-9.52 5.612c.173 1.82 1.271.93 2.24.873a51.66 51.66 0 0 1 12.036.807M7.88 7.045c.225 2.156-.352 4.318.718 6.503.459.935-.812 2.42-.756 3.859.128 3.175.246 3.36 3.4 3.657a11.24 11.24 0 0 1 1.96.56" stroke="#9E7B56" stroke-width="3" stroke-linecap="round" stroke-linejoin="round"/></svg>