<svg width="73" height="75" fill="none" xmlns="http://www.w3.org/2000/svg"><path d="M67.7 9.398c.819-.205 1.752-.23 2.431-.651 1.191-.745 1.527-4.763.643-5.897a2.075 2.075 0 0 0-1.846-.843c-19.643.033-39.286.033-58.929 0-1.608 0-2.353.773-2.222 2.263.131 1.49-.63 3.024.75 4.342a1.756 1.756 0 0 0 1.268.577c3.13.243 6.273.316 9.412.217 5.197-.262 10.378-.09 15.55-.176 10.231-.164 20.462-.053 30.693-.033.679 0 1.403-.241 2.046.188m.616 34.388c-.88 8.65-.189 17.326-.41 25.986 0 .765.144 1.559-.315 2.246-.168.258-.196.627-.708.639-3.482.065-6.916.978-10.435.622a6.681 6.681 0 0 1-1.842-.643M37.623 35.588c.819.07 1.637.205 2.456.197 9.207-.11 18.415.237 27.627-.172 2.34-.107 3.814 2.177 3.474 5.09-.22 1.932-1.817 2.865-4.092 2.456-.947-.15-1.906-.22-2.865-.209-6.547 0-13.095-.2-19.643.074-3.09.13-6.138-.225-9.211-.11-3.074.114-6.139.024-9.208.024H9.587c-.97 0-1.956-.127-2.864.41-1.056.609-2.087-.075-2.599-.66-1.326-1.51-.777-3.535-.573-5.258.172-1.482 1.8-1.637 3.172-1.637h28.236c.753 0 1.502-.127 2.251-.197" stroke="#9E7B56" stroke-width="3" stroke-linecap="round" stroke-linejoin="round"/><path d="M64.428 72.325c-.434-3.573-.135-7.162-.193-10.743-.053-3.306 0-6.617 0-9.821-1.051-.516-1.968-.41-2.864-.41h-13.3c-1.952 0-2.243.291-2.247 2.247v18.825m3.667-57.705c-1.637-.41-3.274-.148-4.91-.193-1.228-.037-1.638.671-1.638 1.83.025 4.501 0 9.003 0 13.504 0 1.265.586 1.89 1.846 1.842 3.617-.144 7.227.11 10.857-.295 1.46-.164 3.114.299 4.694.29 1.886 0 2.426-.454 2.455-2.246.04-4.227 0-8.455 0-12.686 0-1.482-.593-2.361-2.25-2.26-1.838.115-3.684.353-5.517.156a29.69 29.69 0 0 0-5.32.058m-8.196 29.055c.434.646.192 1.37.192 2.046.02 8.87.02 17.736 0 26.6M67.701 9.602v25.782M28.824 9.807v25.577M37.42 9.807v25.577M19.209 9.807v25.372" stroke="#9E7B56" stroke-width="3" stroke-linecap="round" stroke-linejoin="round"/><path d="M55.015 51.753c0 6.073-.094 12.146.053 18.21.053 2.124-1.207 3.622-3.327 3.274-1.899-.303-3.925.585-5.73-.626-1.685 1.588-3.756-.467-5.544.581-.41.238-1.068.033-1.617.033-4.227 0-8.475.241-12.686-.086-2.627-.209-5.189.241-7.775.106-.929-.045-1.8-.073-2.455-.818" stroke="#9E7B56" stroke-width="3" stroke-linecap="round" stroke-linejoin="round"/><path d="M7.34 68.326c-5.82.27-5.349-.54-5.32-5.524 0-3.462 1.833-5.083 5.32-4.702 1.228.13 1.993-.41 2.689-1.416 1.858-2.75 4.014-5.156 7.329-6.286 3.171-1.076 5.975.618 5.897 4.015-.102 4.57.32 9.142-.127 13.713-.135 1.412.107 2.864.172 4.293m26.19-57.497c-.409 4.502-.07 9.003-.233 13.505-.037.998.819 1.682.643 2.66m5.934-15.755v15.55" stroke="#9E7B56" stroke-width="3" stroke-linecap="round" stroke-linejoin="round"/><path d="M6.113 43.773c.549 1.964.09 3.957.193 5.938.13 2.656.151 5.32.217 7.976m16.778-14.119c0 2.415.381 4.91-1.432 6.957m-1.229 2.251c-.395.396-.88.69-1.415.86-1.92.625-3.204 1.882-3.274 4.05m-2.062 6.548c2.496 1.834 3.351 4.502 2.234 7.366-.565 1.445-2.079 1.437-3.274 1.596-2.914.41-4.203-.52-5.111-3.229-.696-2.082.31-4.427 2.455-5.729m4.514-5.938c.479-.135 1.084-.527 1.412-.364 2.136 1.068 4.387.356 6.547.569m-5.709 9.821h5.73M8.772 72.623c-1.8 1.228-3.822.356-5.729.614M29.03 48.479c-.66.47-1.498.818-1.428 1.841.094 1.502-.291 3.045.233 4.502.262.732 1.043.847 1.809.818a200.4 200.4 0 0 1 5.729 0c1.289 0 2.046-.446 1.837-1.845-.209-1.4.528-2.959-.409-4.289a2.12 2.12 0 0 0-2.046-1.068c-1.834.123-3.683.033-5.525.033" stroke="#9E7B56" stroke-width="3" stroke-linecap="round" stroke-linejoin="round"/></svg>