<svg width="242" viewBox="0 0 282 63" fill="none" xmlns="http://www.w3.org/2000/svg"><path d="M20.831 48.69c-2.758 0-5.302-.444-7.633-1.33-2.331-.887-4.367-2.134-6.107-3.743a17.764 17.764 0 0 1-3.989-5.712c-.952-2.167-1.428-4.547-1.428-7.141 0-2.594.476-4.974 1.428-7.14a17.215 17.215 0 0 1 3.99-5.664c1.74-1.642 3.775-2.905 6.106-3.792 2.33-.886 4.875-1.33 7.633-1.33 2.79 0 5.335.444 7.633 1.33 2.331.887 4.35 2.15 6.057 3.792a17.215 17.215 0 0 1 3.99 5.663c.984 2.167 1.477 4.547 1.477 7.141 0 2.594-.493 4.99-1.478 7.19a17.214 17.214 0 0 1-3.989 5.663c-1.707 1.609-3.726 2.856-6.057 3.743-2.298.886-4.842 1.33-7.633 1.33Zm0-8.077c1.313 0 2.528-.23 3.644-.69a8.339 8.339 0 0 0 2.955-1.97 9.158 9.158 0 0 0 1.97-3.15c.492-1.216.738-2.562.738-4.039 0-1.51-.246-2.856-.738-4.038-.46-1.215-1.116-2.25-1.97-3.103a8.042 8.042 0 0 0-2.955-2.019c-1.116-.46-2.33-.69-3.644-.69-1.313 0-2.544.23-3.694.69a8.624 8.624 0 0 0-2.954 2.02c-.821.853-1.478 1.887-1.97 3.102-.46 1.182-.69 2.528-.69 4.038 0 1.477.23 2.823.69 4.038.492 1.215 1.149 2.265 1.97 3.152a8.968 8.968 0 0 0 2.954 1.97c1.15.46 2.38.69 3.694.69Zm35.048 7.83c-2.166 0-4.12-.427-5.86-1.28-1.707-.854-3.053-2.183-4.038-3.99-.952-1.838-1.428-4.152-1.428-6.943V21.31h9.357v13.395c0 2.068.377 3.545 1.132 4.432.788.886 1.888 1.33 3.3 1.33.919 0 1.756-.214 2.511-.64.755-.428 1.363-1.1 1.822-2.02.46-.952.69-2.167.69-3.644V21.309h9.357V48h-8.914v-7.535l1.724 2.118c-.92 1.97-2.25 3.447-3.99 4.432-1.74.952-3.627 1.428-5.663 1.428ZM78.75 48V21.309h8.913v7.78l-1.33-2.215c.788-2.003 2.069-3.497 3.841-4.482 1.773-1.018 3.924-1.526 6.451-1.526v8.42a7.544 7.544 0 0 0-1.132-.098 8.982 8.982 0 0 0-.985-.05c-1.904 0-3.447.526-4.63 1.577-1.181 1.018-1.772 2.692-1.772 5.023V48h-9.357Zm47.195 0L111.22 13.528h10.538l12.41 29.843h-6.205l12.706-29.843h9.652L135.547 48h-9.603Zm26.625 0V21.309h9.357V48h-9.357Zm4.678-29.646c-1.707 0-3.086-.476-4.136-1.428-1.051-.952-1.576-2.134-1.576-3.546s.525-2.593 1.576-3.546c1.05-.952 2.429-1.428 4.136-1.428 1.707 0 3.086.46 4.137 1.38 1.051.886 1.576 2.035 1.576 3.447 0 1.477-.525 2.708-1.576 3.693-1.018.952-2.397 1.428-4.137 1.428Zm20.461 30.09a28.07 28.07 0 0 1-6.648-.789c-2.134-.525-3.858-1.182-5.171-1.97l2.807-6.402c1.247.756 2.708 1.363 4.383 1.823 1.674.426 3.316.64 4.924.64 1.576 0 2.66-.164 3.25-.493.624-.328.936-.771.936-1.33 0-.525-.295-.902-.886-1.132-.558-.263-1.314-.46-2.266-.59-.919-.132-1.937-.28-3.053-.444a44.006 44.006 0 0 1-3.398-.64 12.351 12.351 0 0 1-3.102-1.28 6.659 6.659 0 0 1-2.216-2.365c-.558-.984-.838-2.232-.838-3.742 0-1.707.493-3.218 1.478-4.53 1.018-1.347 2.495-2.397 4.432-3.152 1.937-.788 4.301-1.182 7.091-1.182 1.872 0 3.759.197 5.664.59 1.937.362 3.562.92 4.875 1.675l-2.807 6.353c-1.313-.756-2.626-1.264-3.94-1.527-1.313-.296-2.56-.443-3.742-.443-1.576 0-2.692.18-3.349.541-.624.362-.936.805-.936 1.33s.279.936.837 1.231c.559.263 1.297.476 2.216.64.953.132 1.987.28 3.103.444 1.116.131 2.232.344 3.349.64 1.149.295 2.183.738 3.102 1.33a6.134 6.134 0 0 1 2.265 2.314c.559.952.838 2.183.838 3.694 0 1.641-.509 3.118-1.527 4.432-.985 1.313-2.462 2.363-4.432 3.151-1.937.788-4.35 1.182-7.239 1.182Zm17.23-.444V21.309h9.356V48h-9.356Zm4.678-29.646c-1.707 0-3.086-.476-4.137-1.428-1.05-.952-1.576-2.134-1.576-3.546s.526-2.593 1.576-3.546c1.051-.952 2.43-1.428 4.137-1.428 1.707 0 3.086.46 4.137 1.38 1.05.886 1.576 2.035 1.576 3.447 0 1.477-.526 2.708-1.576 3.693-1.018.952-2.397 1.428-4.137 1.428Zm24.154 30.09c-2.922 0-5.516-.592-7.781-1.774-2.265-1.181-4.054-2.807-5.368-4.875-1.28-2.101-1.92-4.498-1.92-7.19s.64-5.072 1.92-7.14c1.314-2.069 3.103-3.677 5.368-4.827 2.265-1.182 4.859-1.772 7.781-1.772 2.922 0 5.515.59 7.781 1.772 2.298 1.15 4.087 2.758 5.368 4.826 1.28 2.069 1.92 4.449 1.92 7.141s-.64 5.089-1.92 7.19c-1.281 2.068-3.07 3.694-5.368 4.875-2.266 1.182-4.859 1.773-7.781 1.773Zm0-7.437c1.083 0 2.035-.246 2.856-.739.854-.492 1.527-1.214 2.019-2.166.493-.985.739-2.15.739-3.497 0-1.346-.246-2.479-.739-3.398-.492-.952-1.165-1.674-2.019-2.167-.821-.492-1.773-.738-2.856-.738-1.051 0-2.003.246-2.856.738-.821.493-1.494 1.215-2.019 2.167-.493.92-.739 2.052-.739 3.398s.246 2.512.739 3.497c.525.952 1.198 1.674 2.019 2.166.853.493 1.805.74 2.856.74Zm36.787-20.141c2.069 0 3.94.426 5.614 1.28 1.675.82 2.988 2.101 3.94 3.841.985 1.74 1.477 3.989 1.477 6.747V48h-9.356V34.26c0-1.904-.394-3.283-1.182-4.136-.755-.887-1.822-1.33-3.201-1.33a5.45 5.45 0 0 0-2.709.69c-.82.426-1.461 1.1-1.92 2.019-.46.919-.69 2.117-.69 3.595V48h-9.356V21.309h8.913v7.584l-1.724-2.216c1.018-1.937 2.413-3.382 4.186-4.334 1.773-.985 3.776-1.477 6.008-1.477Z" fill="#fff"/><mask id="a" maskUnits="userSpaceOnUse" x="7" y="10" width="273" height="43" fill="#000"><path fill="#fff" d="M7 10h273v43H7z"/><path d="M27.831 51.69c-2.758 0-5.302-.444-7.633-1.33-2.331-.887-4.367-2.134-6.107-3.743a17.764 17.764 0 0 1-3.989-5.712c-.952-2.167-1.428-4.547-1.428-7.141 0-2.594.476-4.974 1.428-7.14a17.215 17.215 0 0 1 3.99-5.664c1.74-1.642 3.775-2.905 6.106-3.792 2.33-.886 4.875-1.33 7.633-1.33 2.79 0 5.335.444 7.633 1.33 2.331.887 4.35 2.15 6.057 3.792a17.215 17.215 0 0 1 3.99 5.663c.984 2.167 1.477 4.547 1.477 7.141 0 2.594-.493 4.99-1.478 7.19a17.214 17.214 0 0 1-3.989 5.663c-1.707 1.609-3.726 2.856-6.057 3.743-2.298.886-4.842 1.33-7.633 1.33Zm0-8.077c1.313 0 2.528-.23 3.644-.69a8.339 8.339 0 0 0 2.955-1.97 9.158 9.158 0 0 0 1.97-3.15c.492-1.216.738-2.562.738-4.039 0-1.51-.246-2.856-.738-4.038-.46-1.215-1.117-2.25-1.97-3.103a8.042 8.042 0 0 0-2.955-2.019c-1.116-.46-2.33-.69-3.644-.69-1.313 0-2.544.23-3.694.69a8.624 8.624 0 0 0-2.954 2.02c-.821.853-1.478 1.887-1.97 3.102-.46 1.182-.69 2.528-.69 4.038 0 1.477.23 2.823.69 4.038.492 1.215 1.149 2.265 1.97 3.152a8.968 8.968 0 0 0 2.954 1.97c1.15.46 2.38.69 3.694.69Zm35.048 7.83c-2.166 0-4.12-.427-5.86-1.28-1.707-.854-3.053-2.183-4.038-3.99-.952-1.838-1.428-4.152-1.428-6.943V24.31h9.357v13.395c0 2.068.377 3.545 1.132 4.432.788.886 1.888 1.33 3.3 1.33.919 0 1.756-.214 2.511-.64.755-.428 1.363-1.1 1.822-2.02.46-.952.69-2.167.69-3.644V24.309h9.357V51h-8.914v-7.535l1.724 2.118c-.92 1.97-2.25 3.447-3.99 4.432-1.74.952-3.627 1.428-5.663 1.428ZM85.75 51V24.309h8.913v7.78l-1.33-2.215c.788-2.003 2.069-3.497 3.841-4.482 1.773-1.018 3.924-1.526 6.452-1.526v8.42a7.555 7.555 0 0 0-1.133-.098 8.991 8.991 0 0 0-.985-.05c-1.904 0-3.447.526-4.63 1.577-1.181 1.017-1.772 2.692-1.772 5.023V51h-9.357Zm47.195 0L118.22 16.528h10.538l12.41 29.843h-6.205l12.706-29.843h9.652L142.547 51h-9.603Zm26.625 0V24.309h9.357V51h-9.357Zm4.678-29.646c-1.707 0-3.086-.476-4.136-1.428-1.051-.952-1.576-2.134-1.576-3.546 0-1.411.525-2.593 1.576-3.545 1.05-.953 2.429-1.429 4.136-1.429 1.707 0 3.086.46 4.137 1.38 1.051.886 1.576 2.035 1.576 3.447 0 1.477-.525 2.708-1.576 3.693-1.018.952-2.397 1.428-4.137 1.428Zm20.461 30.09a28.07 28.07 0 0 1-6.648-.789c-2.134-.525-3.858-1.182-5.171-1.97l2.807-6.402c1.247.756 2.708 1.363 4.383 1.823 1.674.426 3.316.64 4.924.64 1.576 0 2.66-.164 3.25-.493.624-.328.936-.771.936-1.33 0-.525-.295-.902-.886-1.132-.558-.263-1.314-.46-2.266-.59-.919-.132-1.937-.28-3.053-.444a44.006 44.006 0 0 1-3.398-.64 12.351 12.351 0 0 1-3.102-1.28 6.659 6.659 0 0 1-2.216-2.365c-.558-.984-.838-2.232-.838-3.742 0-1.707.493-3.218 1.478-4.53 1.018-1.347 2.495-2.397 4.432-3.152 1.937-.788 4.301-1.182 7.091-1.182 1.872 0 3.759.197 5.664.59 1.937.362 3.562.92 4.875 1.675l-2.807 6.353c-1.313-.756-2.626-1.264-3.94-1.527-1.313-.296-2.56-.443-3.742-.443-1.576 0-2.692.18-3.349.541-.624.362-.936.805-.936 1.33s.279.936.837 1.231c.559.263 1.297.476 2.216.64.953.132 1.987.28 3.103.444 1.116.131 2.232.344 3.349.64 1.149.295 2.183.738 3.102 1.33a6.134 6.134 0 0 1 2.265 2.314c.559.952.838 2.183.838 3.694 0 1.641-.509 3.118-1.527 4.432-.985 1.313-2.462 2.363-4.432 3.151-1.937.788-4.35 1.182-7.239 1.182Zm17.23-.444V24.309h9.356V51h-9.356Zm4.678-29.646c-1.707 0-3.086-.476-4.137-1.428-1.05-.952-1.576-2.134-1.576-3.546 0-1.411.526-2.593 1.576-3.545 1.051-.953 2.43-1.429 4.137-1.429 1.707 0 3.086.46 4.137 1.38 1.05.886 1.576 2.035 1.576 3.447 0 1.477-.526 2.708-1.576 3.693-1.018.952-2.397 1.428-4.137 1.428Zm24.154 30.09c-2.922 0-5.516-.592-7.781-1.774-2.265-1.181-4.054-2.807-5.368-4.875-1.28-2.101-1.92-4.498-1.92-7.19s.64-5.072 1.92-7.14c1.314-2.069 3.103-3.677 5.368-4.827 2.265-1.182 4.859-1.772 7.781-1.772 2.922 0 5.515.59 7.781 1.772 2.298 1.15 4.087 2.758 5.368 4.826 1.28 2.069 1.92 4.449 1.92 7.141s-.64 5.089-1.92 7.19c-1.281 2.068-3.07 3.694-5.368 4.875-2.266 1.182-4.859 1.773-7.781 1.773Zm0-7.437c1.083 0 2.035-.246 2.856-.739.854-.492 1.527-1.214 2.019-2.166.493-.985.739-2.15.739-3.497 0-1.346-.246-2.479-.739-3.398-.492-.952-1.165-1.674-2.019-2.167-.821-.492-1.773-.738-2.856-.738-1.051 0-2.003.246-2.856.738-.821.493-1.494 1.215-2.019 2.167-.493.92-.739 2.052-.739 3.398s.246 2.512.739 3.497c.525.952 1.198 1.674 2.019 2.166.853.493 1.805.74 2.856.74Zm36.787-20.141c2.069 0 3.94.426 5.614 1.28 1.675.82 2.988 2.101 3.94 3.841.985 1.74 1.477 3.989 1.477 6.747V51h-9.356V37.26c0-1.904-.394-3.283-1.182-4.136-.755-.887-1.822-1.33-3.201-1.33a5.45 5.45 0 0 0-2.709.69c-.82.426-1.461 1.1-1.92 2.019-.46.919-.69 2.117-.69 3.595V51h-9.356V24.309h8.913v7.584l-1.724-2.216c1.018-1.937 2.413-3.382 4.186-4.334 1.773-.985 3.776-1.477 6.008-1.477Z"/></mask><path d="m20.198 50.36-.356.934.356-.934Zm-6.107-3.743-.693.721.007.007.008.006.678-.734Zm-3.989-5.712-.915.402.915-.402Zm0-14.282-.915-.402.915.402Zm3.99-5.663.685.728-.686-.728Zm6.106-3.792-.356-.935.356.935Zm15.266 0-.36.933.005.002.355-.935Zm6.057 3.792-.693.72.008.008.685-.728Zm3.99 5.663-.916.403.005.011.91-.414Zm0 14.33-.914-.408-.002.007.915.402Zm-3.99 5.664.686.728-.686-.728Zm-6.057 3.743-.355-.935-.005.002.36.933Zm-3.989-7.436-.371-.929-.01.004.381.925Zm2.955-1.97-.72-.694.72.694Zm1.97-3.152-.927-.376-.004.011-.005.011.936.354Zm0-8.076-.935.354.005.015.007.015.923-.384Zm-1.97-3.103-.734.68.013.014.014.013.707-.707Zm-2.955-2.019-.38.925.009.004.371-.929Zm-7.338 0-.37-.928-.01.004.38.924Zm-2.954 2.02-.72-.694h-.001l.72.693Zm-1.97 3.102-.927-.376-.003.007-.002.006.932.363Zm0 8.076-.935.354.004.011.004.01.927-.375Zm1.97 3.152-.734.68.013.013.014.014.707-.707Zm2.954 1.97-.38.924.01.004.37-.928Zm3.694 7.765c-2.65 0-5.072-.425-7.278-1.264l-.71 1.87c2.455.933 5.122 1.394 7.988 1.394v-2Zm-7.278-1.264c-2.217-.843-4.142-2.025-5.783-3.542l-1.357 1.468c1.838 1.7 3.985 3.014 6.43 3.944l.71-1.87Zm-5.769-3.529a16.765 16.765 0 0 1-3.766-5.394l-1.831.805a18.764 18.764 0 0 0 4.211 6.031l1.386-1.442Zm-3.766-5.394c-.891-2.028-1.344-4.27-1.344-6.738h-2c0 2.719.5 5.238 1.513 7.543l1.831-.805Zm-1.344-6.738c0-2.469.453-4.71 1.344-6.738l-1.831-.805c-1.013 2.305-1.513 4.824-1.513 7.543h2Zm1.344-6.738a16.215 16.215 0 0 1 3.76-5.338l-1.372-1.456a18.214 18.214 0 0 0-4.219 5.989l1.831.805Zm3.76-5.339c1.64-1.547 3.562-2.742 5.775-3.584l-.71-1.87c-2.449.931-4.598 2.264-6.438 4l1.373 1.454Zm5.775-3.584c2.206-.84 4.629-1.265 7.278-1.265v-2c-2.866 0-5.533.462-7.989 1.395l.711 1.87Zm7.278-1.265c2.684 0 5.104.427 7.273 1.263l.72-1.866c-2.427-.936-5.096-1.396-7.993-1.396v2Zm7.278 1.265c2.212.841 4.114 2.034 5.72 3.578l1.385-1.442c-1.809-1.74-3.944-3.074-6.395-4.006l-.71 1.87Zm5.727 3.585a16.215 16.215 0 0 1 3.759 5.338l1.83-.805a18.215 18.215 0 0 0-4.218-5.989l-1.371 1.456Zm3.764 5.35c.92 2.025 1.388 4.262 1.388 6.726h2c0-2.723-.518-5.246-1.567-7.555l-1.821.828Zm1.388 6.726c0 2.464-.467 4.72-1.39 6.781l1.825.817c1.047-2.337 1.565-4.875 1.565-7.598h-2Zm-1.393 6.788a16.213 16.213 0 0 1-3.76 5.337l1.372 1.456a18.215 18.215 0 0 0 4.219-5.989l-1.831-.804Zm-3.76 5.337c-1.605 1.514-3.51 2.693-5.726 3.536l.71 1.87c2.446-.93 4.58-2.246 6.388-3.95l-1.371-1.456Zm-5.73 3.538c-2.17.837-4.59 1.262-7.274 1.262v2c2.897 0 5.566-.46 7.993-1.396l-.72-1.866Zm-7.274-4.814c1.432 0 2.778-.251 4.025-.765L31.094 42c-.985.406-2.069.614-3.263.614v2Zm4.016-.76a9.34 9.34 0 0 0 3.304-2.206l-1.442-1.386a7.339 7.339 0 0 1-2.605 1.734l.743 1.857Zm3.303-2.206a10.15 10.15 0 0 0 2.185-3.491l-1.87-.708a8.156 8.156 0 0 1-1.755 2.812l1.44 1.388Zm2.177-3.47c.546-1.347.811-2.823.811-4.413h-2c0 1.365-.227 2.581-.665 3.662l1.854.752Zm.811-4.413c0-1.619-.264-3.1-.815-4.423l-1.846.77c.433 1.04.661 2.251.661 3.653h2Zm-.803-4.392c-.506-1.337-1.237-2.494-2.198-3.456l-1.414 1.414c.746.746 1.328 1.657 1.742 2.75l1.87-.708Zm-2.171-3.428a9.041 9.041 0 0 0-3.317-2.268l-.743 1.857a7.042 7.042 0 0 1 2.592 1.77l1.468-1.36Zm-3.308-2.264c-1.247-.514-2.593-.765-4.025-.765v2c1.194 0 2.278.208 3.263.614l.762-1.85Zm-4.025-.765c-1.433 0-2.79.251-4.065.76l.743 1.858a8.854 8.854 0 0 1 3.322-.618v-2Zm-4.074.765a9.62 9.62 0 0 0-3.295 2.25l1.441 1.387a7.621 7.621 0 0 1 2.615-1.788l-.761-1.85Zm-3.295 2.25c-.918.955-1.64 2.1-2.176 3.42l1.854.752c.45-1.11 1.04-2.033 1.764-2.786l-1.442-1.386Zm-2.181 3.433c-.512 1.318-.758 2.79-.758 4.401h2c0-1.41.215-2.63.622-3.676l-1.864-.725Zm-.758 4.401c0 1.582.247 3.05.755 4.392l1.87-.708c-.411-1.087-.625-2.311-.625-3.684h-2Zm.763 4.414c.534 1.317 1.253 2.473 2.163 3.455l1.468-1.359c-.732-.79-1.326-1.735-1.777-2.848l-1.854.752Zm2.19 3.483a9.967 9.967 0 0 0 3.28 2.187L24.519 42a7.966 7.966 0 0 1-2.628-1.752l-1.414 1.414Zm3.29 2.191c1.274.51 2.632.761 4.065.761v-2a8.852 8.852 0 0 1-3.322-.618l-.743 1.857Zm33.253 6.31-.447.895.007.004.44-.898Zm-4.038-3.988-.888.46.005.01.005.009.878-.48Zm-1.428-21.865v-1h-1v1h1Zm9.357 0h1v-1h-1v1Zm1.132 17.827-.761.648.007.008.007.008.747-.664Zm7.633-1.33.895.447.006-.012-.9-.435Zm.69-16.497v-1h-1v1h1Zm9.357 0h1v-1h-1v1Zm0 26.691v1h1v-1h-1Zm-8.914 0h-1v1h1v-1Zm0-7.535.775-.63-1.775-2.182v2.812h1Zm1.724 2.118.906.423.265-.568-.396-.486-.775.631Zm-3.99 4.432.48.877.007-.003.006-.004-.492-.87Zm-5.663.428c-2.032 0-3.832-.4-5.42-1.178l-.88 1.796c1.892.928 4 1.382 6.3 1.382v-2Zm-5.413-1.175c-1.51-.755-2.712-1.932-3.607-3.573l-1.756.958c1.075 1.97 2.565 3.452 4.469 4.404l.894-1.789Zm-3.597-3.554c-.857-1.656-1.316-3.8-1.316-6.484h-2c0 2.898.493 5.382 1.54 7.404l1.776-.92Zm-1.316-6.484V24.31h-2v14.92h2Zm-1-13.921h9.357v-2h-9.357v2Zm8.357-1v13.395h2V24.309h-2Zm0 13.395c0 2.14.38 3.918 1.371 5.08l1.522-1.297c-.52-.61-.893-1.787-.893-3.783h-2Zm1.385 5.096c1.014 1.14 2.409 1.665 4.047 1.665v-2c-1.186 0-1.99-.361-2.552-.994l-1.495 1.33Zm4.047 1.665c1.08 0 2.089-.253 3.003-.77l-.984-1.74c-.596.337-1.262.51-2.02.51v2Zm3.003-.77c.959-.54 1.693-1.378 2.225-2.442l-1.79-.894c-.386.775-.867 1.284-1.419 1.596l.984 1.74Zm2.23-2.454c.547-1.13.79-2.507.79-4.08h-2c0 1.384-.217 2.437-.59 3.21l1.8.87Zm.79-4.08V24.31h-2v12.853h2Zm-1-11.852h9.357v-2h-9.357v2Zm8.357-1V51h2V24.309h-2Zm1 25.691h-8.914v2h8.913v-2Zm-7.914 1v-7.535h-2V51h2Zm-1.776-6.903 1.724 2.117 1.551-1.262-1.724-2.118-1.55 1.263Zm1.593 1.063c-.839 1.799-2.032 3.111-3.575 3.985l.985 1.74c1.937-1.096 3.404-2.738 4.403-4.88l-1.813-.845Zm-3.562 3.978c-1.59.87-3.311 1.305-5.184 1.305v2c2.2 0 4.253-.516 6.144-1.55l-.96-1.755ZM85.748 51h-1v1h1v-1Zm0-26.691v-1h-1v1h1Zm8.914 0h1v-1h-1v1Zm0 7.78-.858.515 1.858 3.096v-3.61h-1Zm-1.33-2.215-.93-.367-.18.459.253.422.857-.515Zm3.841-4.482.486.874.012-.007-.498-.867Zm6.452-1.526h1v-1h-1v1Zm0 8.42-.153.989 1.153.177v-1.165h-1Zm-1.133-.098-.111.994.055.006h.056v-1Zm-5.614 1.527.652.757.006-.005.006-.005-.664-.747ZM95.105 51v1h1v-1h-1Zm-8.357 0V24.309h-2V51h2Zm-1-25.691h8.914v-2h-8.914v2Zm7.914-1v7.78h2v-7.78h-2Zm1.857 7.266-1.33-2.216-1.714 1.029 1.33 2.216 1.714-1.029Zm-1.256-1.335c.708-1.801 1.839-3.109 3.396-3.974l-.971-1.748c-1.989 1.105-3.42 2.785-4.286 4.99l1.86.732Zm3.408-3.98c1.59-.913 3.559-1.394 5.954-1.394v-2c-2.662 0-4.993.536-6.95 1.659l.996 1.734Zm4.954-2.394v8.42h2v-8.42h-2Zm1.152 7.432a8.554 8.554 0 0 0-1.285-.11v2c.264 0 .589.027.98.087l.305-1.977Zm-1.175-.104a9.983 9.983 0 0 0-1.095-.055v2c.332 0 .622.015.874.043l.221-1.988Zm-1.095-.055c-2.097 0-3.893.583-5.294 1.828l1.33 1.495c.962-.856 2.252-1.323 3.964-1.323v-2Zm-5.282 1.818c-1.493 1.286-2.12 3.305-2.12 5.78h2c0-2.185.555-3.515 1.425-4.265l-1.305-1.515Zm-2.12 5.78V51h2V38.738h-2Zm1 11.263h-9.357v2h9.357v-2Zm37.839 1-.919.393.259.607h.66v-1ZM118.22 16.528v-1h-1.515l.595 1.393.92-.393Zm10.538 0 .924-.384-.256-.616h-.668v1Zm12.41 29.843v1h1.499l-.575-1.384-.924.384Zm-6.205 0-.92-.392-.592 1.392h1.512v-1Zm12.706-29.843v-1h-.661l-.259.608.92.392Zm9.652 0 .919.394.597-1.394h-1.516v1ZM142.547 51v1h.66l.259-.606-.919-.394Zm-8.683-.393-14.725-34.472-1.839.786 14.725 34.472 1.839-.786Zm-15.644-33.08h10.538v-2H118.22v2Zm9.615-.615 12.41 29.843 1.847-.768-12.41-29.843-1.847.768Zm13.333 28.459h-6.205v2h6.205v-2Zm-5.285 1.392 12.706-29.843-1.84-.784-12.706 29.843 1.84.784Zm11.786-29.235h9.652v-2h-9.652v2Zm8.733-1.394-14.774 34.472 1.838.788 14.774-34.472-1.838-.788ZM142.547 50h-9.603v2h9.603v-2Zm17.022 1h-1v1h1v-1Zm0-26.691v-1h-1v1h1Zm9.357 0h1v-1h-1v1Zm0 26.691v1h1v-1h-1Zm-8.815-31.074.671-.741-.671.74Zm0-7.091.671.74-.671-.74Zm8.273-.05-.659.753.007.006.007.005.645-.764Zm0 7.14.683.731h.001l-.684-.73ZM160.569 51V24.309h-2V51h2Zm-1-25.691h9.357v-2h-9.357v2Zm8.357-1V51h2V24.309h-2Zm1 25.691h-9.357v2h9.357v-2Zm-4.679-29.646c-1.512 0-2.634-.416-3.465-1.17l-1.343 1.483c1.271 1.151 2.906 1.687 4.808 1.687v-2Zm-3.465-1.17c-.842-.763-1.247-1.676-1.247-2.804h-2c0 1.696.645 3.146 1.904 4.287l1.343-1.482Zm-1.247-2.804c0-1.128.405-2.041 1.247-2.804l-1.343-1.482c-1.259 1.14-1.904 2.59-1.904 4.286h2Zm1.247-2.804c.831-.753 1.953-1.17 3.465-1.17v-2c-1.902 0-3.537.536-4.808 1.688l1.343 1.482Zm3.465-1.17c1.522 0 2.648.406 3.478 1.132l1.317-1.505c-1.271-1.113-2.902-1.627-4.795-1.627v2Zm3.492 1.143c.819.691 1.221 1.557 1.221 2.684h2c0-1.698-.649-3.13-1.931-4.212l-1.29 1.528Zm1.221 2.684c0 1.209-.417 2.173-1.26 2.963l1.368 1.46c1.258-1.18 1.892-2.678 1.892-4.423h-2Zm-1.259 2.963c-.79.738-1.901 1.158-3.454 1.158v2c1.928 0 3.574-.532 4.82-1.698l-1.366-1.46Zm10.359 31.46-.239.97.003.001.236-.972Zm-5.171-1.97-.916-.402-.354.806.755.453.515-.858Zm2.807-6.403.518-.855-.976-.59-.458 1.044.916.401Zm4.383 1.823-.265.964.009.002.009.003.247-.97Zm8.174.147-.465-.885-.01.006-.01.005.485.874Zm.05-2.462-.426.905.031.015.032.012.363-.932Zm-2.266-.59-.141.989h.005l.136-.99Zm-3.053-.444-.145.99.145-.99Zm-3.398-.64-.256.966.017.005.016.004.223-.975Zm-3.102-1.28-.541.84.017.012.018.01.506-.863Zm-2.216-2.365.87-.492-.87.492Zm.64-8.273-.798-.603-.002.003.8.6Zm4.432-3.152.363.932.007-.002.007-.003-.377-.927Zm12.755-.59-.203.979.01.002.009.002.184-.984Zm4.875 1.674.915.404.363-.823-.78-.448-.498.867Zm-2.807 6.353-.499.866.964.555.45-1.017-.915-.404Zm-3.94-1.527-.219.976.011.002.012.003.196-.981Zm-7.091.098-.482-.876-.01.006-.009.005.501.865Zm-.099 2.561-.467.884.02.011.022.01.425-.905Zm2.216.64-.175.985.019.003.02.003.136-.99Zm3.103.444-.146.989.015.002.014.002.117-.993Zm3.349.64-.256.967.007.001.249-.968Zm3.102 1.33-.541.84.018.012.017.01.506-.862Zm2.265 2.314-.87.493.004.006.004.007.862-.506Zm-.689 8.126-.79-.613-.005.006-.005.007.8.6Zm-4.432 3.151-.371-.928-.006.002.377.926Zm-7.239.182c-2.187 0-4.324-.253-6.413-.76l-.471 1.944c2.245.544 4.54.816 6.884.816v-2Zm-6.409-.759c-2.076-.51-3.696-1.136-4.896-1.856l-1.029 1.715c1.427.856 3.254 1.544 5.447 2.083l.478-1.942Zm-4.494-.597 2.807-6.402-1.832-.803-2.807 6.402 1.832.803Zm1.373-5.948c1.34.81 2.889 1.451 4.636 1.93l.529-1.928c-1.601-.44-2.974-1.014-4.129-1.713l-1.036 1.711Zm4.654 1.936c1.749.445 3.473.67 5.171.67v-2c-1.519 0-3.078-.2-4.677-.608l-.494 1.938Zm5.171.67c.819 0 1.537-.042 2.145-.134.595-.09 1.147-.237 1.591-.483l-.971-1.749c-.147.082-.432.181-.92.255-.476.072-1.087.112-1.845.112v2Zm3.716-.607c.85-.447 1.47-1.182 1.47-2.214h-2c0 .084-.004.235-.401.444l.931 1.77Zm1.47-2.214c0-.464-.135-.912-.434-1.294-.289-.369-.679-.611-1.09-.771l-.725 1.864c.181.07.233.131.24.14l.003.005a.173.173 0 0 1 .006.056h2Zm-1.46-2.038c-.686-.323-1.552-.538-2.555-.677l-.273 1.982c.901.124 1.545.302 1.976.505l.852-1.81Zm-2.55-.676c-.918-.131-1.934-.279-3.049-.443l-.291 1.98c1.117.163 2.136.312 3.057.443l.283-1.98Zm-3.049-.443a42.997 42.997 0 0 1-3.321-.625l-.446 1.95c1.174.268 2.332.486 3.476.654l.291-1.979Zm-3.288-.617a11.36 11.36 0 0 1-2.853-1.176l-1.011 1.725a13.364 13.364 0 0 0 3.352 1.384l.512-1.933Zm-2.818-1.155a5.671 5.671 0 0 1-1.886-2.015l-1.74.986a7.66 7.66 0 0 0 2.545 2.712l1.081-1.683Zm-1.886-2.015c-.449-.793-.708-1.857-.708-3.25h-2c0 1.627.301 3.058.968 4.236l1.74-.986Zm-.708-3.25c0-1.5.428-2.798 1.278-3.93l-1.6-1.2c-1.12 1.493-1.678 3.215-1.678 5.13h2Zm1.276-3.928c.882-1.167 2.193-2.12 3.997-2.823l-.726-1.863c-2.07.806-3.714 1.956-4.867 3.48l1.596 1.206Zm4.011-2.828c1.784-.726 4.012-1.108 6.714-1.108v-2c-2.879 0-5.378.405-7.468 1.255l.754 1.853Zm6.714-1.108c1.801 0 3.621.189 5.461.57l.405-1.959a28.894 28.894 0 0 0-5.866-.611v2Zm5.48.574c1.858.346 3.369.873 4.561 1.558l.996-1.734c-1.435-.825-3.174-1.415-5.19-1.79l-.367 1.966Zm4.144.287-2.807 6.352 1.83.809 2.807-6.353-1.83-.808Zm-1.394 5.89c-1.395-.803-2.809-1.354-4.242-1.64l-.392 1.96c1.194.24 2.406.705 3.637 1.413l.997-1.733Zm-4.218-1.636c-1.376-.31-2.697-.467-3.962-.467v2c1.098 0 2.272.137 3.523.419l.439-1.952Zm-3.962-.467c-1.597 0-2.937.173-3.831.665l.964 1.753c.419-.23 1.312-.418 2.867-.418v-2Zm-3.85.676c-.803.465-1.435 1.185-1.435 2.195h2c0-.04-.007-.207.437-.464l-1.002-1.731Zm-1.435 2.195c0 .978.563 1.688 1.37 2.115l.935-1.768c-.31-.164-.305-.274-.305-.347h-2Zm1.412 2.136c.667.314 1.499.547 2.466.72l.351-1.969c-.872-.156-1.517-.35-1.966-.56l-.851 1.809Zm2.505.726c.949.13 1.98.278 3.093.442l.291-1.979a347.547 347.547 0 0 0-3.111-.444l-.273 1.981Zm3.122.446c1.068.125 2.138.33 3.21.614l.512-1.934a25.09 25.09 0 0 0-3.488-.666l-.234 1.986Zm3.217.615a9.556 9.556 0 0 1 2.81 1.203l1.082-1.683a11.563 11.563 0 0 0-3.394-1.457l-.498 1.937Zm2.845 1.224a5.125 5.125 0 0 1 1.901 1.945l1.74-.986a7.13 7.13 0 0 0-2.629-2.684l-1.012 1.725Zm1.909 1.958c.441.752.7 1.792.7 3.188h2c0-1.626-.3-3.048-.975-4.2l-1.725 1.012Zm.7 3.188c0 1.416-.434 2.679-1.317 3.819l1.58 1.225c1.152-1.486 1.737-3.178 1.737-5.044h-2Zm-1.327 3.832c-.847 1.129-2.155 2.084-4.003 2.823l.742 1.857c2.092-.837 3.738-1.983 4.861-3.48l-1.6-1.2Zm-4.009 2.825c-1.781.724-4.056 1.108-6.862 1.108v2c2.972 0 5.523-.404 7.616-1.255l-.754-1.853ZM201.938 51h-1v1h1v-1Zm0-26.691v-1h-1v1h1Zm9.356 0h1v-1h-1v1Zm0 26.691v1h1v-1h-1Zm-8.815-31.074.672-.741-.672.74Zm0-7.091.672.74-.672-.74Zm8.274-.05-.659.753.007.006.007.005.645-.764Zm0 7.14.683.731h.001l-.684-.73ZM202.938 51V24.309h-2V51h2Zm-1-25.691h9.356v-2h-9.356v2Zm8.356-1V51h2V24.309h-2Zm1 25.691h-9.356v2h9.356v-2Zm-4.678-29.646c-1.512 0-2.635-.416-3.465-1.17l-1.343 1.483c1.27 1.151 2.906 1.687 4.808 1.687v-2Zm-3.465-1.17c-.843-.763-1.248-1.676-1.248-2.804h-2c0 1.696.646 3.146 1.905 4.287l1.343-1.482Zm-1.248-2.804c0-1.128.405-2.041 1.248-2.804l-1.343-1.482c-1.259 1.14-1.905 2.59-1.905 4.286h2Zm1.248-2.804c.83-.753 1.953-1.17 3.465-1.17v-2c-1.902 0-3.538.536-4.808 1.688l1.343 1.482Zm3.465-1.17c1.521 0 2.648.406 3.478 1.132l1.317-1.505c-1.271-1.113-2.902-1.627-4.795-1.627v2Zm3.492 1.143c.818.691 1.221 1.557 1.221 2.684h2c0-1.698-.649-3.13-1.931-4.212l-1.29 1.528Zm1.221 2.684c0 1.209-.417 2.173-1.26 2.963l1.368 1.46c1.258-1.18 1.892-2.678 1.892-4.423h-2Zm-1.26 2.963c-.789.738-1.901 1.158-3.453 1.158v2c1.928 0 3.574-.532 4.82-1.698l-1.367-1.46Zm12.92 30.474.463-.886-.463.886Zm-5.368-4.875-.854.52.005.008.005.008.844-.536Zm0-14.33-.844-.537-.006.01.85.527Zm5.368-4.827.452.892.011-.005-.463-.887Zm15.562 0-.463.887.008.004.008.004.447-.895Zm5.368 4.826-.851.527.851-.526Zm0 14.331.85.526.003-.006-.853-.52Zm-5.368 4.875-.458-.889-.005.003.463.886Zm-4.925-6.402-.5-.866-.007.005-.007.004.514.857Zm2.019-2.166.889.46.006-.013-.895-.447Zm0-6.895-.888.46.003.006.004.006.881-.472Zm-2.019-2.167-.514.858.007.004.007.005.5-.867Zm-5.712 0-.5-.866-.007.005-.008.004.515.857Zm-2.019 2.167-.876-.483-.006.011.882.472Zm0 6.895-.895.447.009.018.01.018.876-.483Zm2.019 2.166-.515.858.008.004.007.005.5-.867Zm2.856 7.175c-2.784 0-5.215-.562-7.318-1.66l-.925 1.774c2.427 1.266 5.183 1.886 8.243 1.886v-2Zm-7.318-1.66c-2.117-1.104-3.772-2.61-4.986-4.524l-1.689 1.072c1.412 2.223 3.335 3.966 5.75 5.226l.925-1.773Zm-4.977-4.508c-1.176-1.93-1.774-4.143-1.774-6.67h-2c0 2.858.682 5.438 2.066 7.71l1.708-1.04Zm-1.774-6.67c0-2.526.598-4.72 1.771-6.614l-1.701-1.053c-1.388 2.243-2.07 4.81-2.07 7.667h2Zm1.765-6.604c1.213-1.911 2.864-3.4 4.975-4.47l-.904-1.784c-2.42 1.227-4.347 2.956-5.76 5.181L218.466 31Zm4.986-4.476c2.103-1.097 4.534-1.66 7.318-1.66v-2c-3.06 0-5.816.62-8.243 1.887l.925 1.773Zm7.318-1.66c2.784 0 5.215.563 7.318 1.66l.925-1.773c-2.427-1.267-5.183-1.886-8.243-1.886v2Zm7.334 1.668c2.142 1.07 3.787 2.556 4.964 4.458l1.701-1.053c-1.384-2.235-3.317-3.967-5.771-5.194l-.894 1.789Zm4.964 4.458c1.173 1.894 1.771 4.087 1.771 6.614h2c0-2.857-.682-5.424-2.07-7.667l-1.701 1.053Zm1.771 6.614c0 2.527-.598 4.74-1.774 6.67l1.707 1.04c1.385-2.272 2.067-4.852 2.067-7.71h-2Zm-1.771 6.664c-1.178 1.904-2.827 3.408-4.975 4.512l.915 1.779c2.449-1.26 4.379-3.006 5.761-5.239l-1.701-1.052Zm-4.98 4.515c-2.103 1.097-4.534 1.66-7.318 1.66v2c3.06 0 5.816-.62 8.243-1.887l-.925-1.773Zm-7.318-3.777c1.24 0 2.375-.284 3.371-.881l-1.029-1.715c-.646.387-1.415.596-2.342.596v2Zm3.356-.872c1.034-.597 1.835-1.468 2.407-2.574l-1.776-.919c-.413.798-.957 1.372-1.631 1.76l1 1.733Zm2.414-2.586c.575-1.151.844-2.477.844-3.944h-2c0 1.225-.224 2.23-.633 3.05l1.789.894Zm.844-3.944c0-1.464-.268-2.77-.857-3.87l-1.763.944c.395.738.62 1.698.62 2.926h2Zm-.851-3.857c-.572-1.107-1.373-1.977-2.407-2.574l-1 1.733c.674.388 1.218.962 1.631 1.76l1.776-.92Zm-2.392-2.565c-.996-.598-2.131-.881-3.371-.881v2c.927 0 1.696.209 2.342.596l1.029-1.715Zm-3.371-.881c-1.214 0-2.34.286-3.356.872l.999 1.733c.692-.4 1.47-.605 2.357-.605v-2Zm-3.371.88c-.992.596-1.781 1.457-2.38 2.542l1.751.966c.452-.819 1.008-1.402 1.658-1.792l-1.029-1.715Zm-2.386 2.553c-.59 1.1-.857 2.406-.857 3.87h2c0-1.228.225-2.188.62-2.926l-1.763-.944Zm-.857 3.87c0 1.468.269 2.793.844 3.944l1.789-.895c-.409-.818-.633-1.824-.633-3.049h-2Zm.863 3.98c.599 1.085 1.388 1.946 2.38 2.54l1.029-1.714c-.65-.39-1.206-.974-1.658-1.793l-1.751.967Zm2.395 2.55c1.016.586 2.142.872 3.356.872v-2c-.887 0-1.665-.206-2.357-.605l-.999 1.733Zm45.757-18.99-.454.892.007.003.007.004.44-.898Zm3.94 3.842-.877.48.003.006.004.007.87-.493ZM278.588 51v1h1v-1h-1Zm-9.356 0h-1v1h1v-1Zm-1.182-17.876-.761.648.012.015.014.015.735-.678Zm-5.91-.64.462.887.013-.007.014-.008-.489-.872ZM259.53 51v1h1v-1h-1Zm-9.356 0h-1v1h1v-1Zm0-26.691v-1h-1v1h1Zm8.913 0h1v-1h-1v1Zm0 7.584-.789.614 1.789 2.3v-2.914h-1Zm-1.724-2.216-.885-.466-.3.57.396.51.789-.614Zm4.186-4.334.473.88.007-.002.006-.004-.486-.874Zm6.008-.477c1.927 0 3.64.396 5.16 1.17l.909-1.781c-1.829-.932-3.859-1.39-6.069-1.39v2Zm5.174 1.178c1.477.724 2.643 1.852 3.503 3.423l1.754-.96c-1.044-1.909-2.505-3.341-4.376-4.259l-.881 1.796Zm3.51 3.436c.873 1.543 1.347 3.606 1.347 6.254h2c0-2.868-.511-5.303-1.607-7.24l-1.74.986Zm1.347 6.254V51h2V35.734h-2Zm1 14.266h-9.356v2h9.356v-2Zm-8.356 1V37.26h-2V51h2Zm0-13.74c0-2.004-.408-3.689-1.447-4.814l-1.47 1.356c.537.582.917 1.654.917 3.458h2Zm-1.421-4.785c-.981-1.15-2.35-1.68-3.962-1.68v2c1.145 0 1.91.355 2.44.977l1.522-1.297Zm-3.962-1.68c-1.148 0-2.22.269-3.197.816l.977 1.745a4.449 4.449 0 0 1 2.22-.562v-2Zm-3.17.801c-1.029.535-1.811 1.373-2.354 2.46l1.789.894c.376-.753.875-1.26 1.488-1.58l-.923-1.774Zm-2.354 2.46c-.552 1.105-.795 2.472-.795 4.042h2c0-1.386.218-2.415.584-3.148l-1.789-.895Zm-.795 4.042V51h2V38.098h-2Zm1 11.902h-9.356v2h9.356v-2Zm-8.356 1V24.309h-2V51h2Zm-1-25.691h8.913v-2h-8.913v2Zm7.913-1v7.584h2v-7.584h-2Zm1.789 6.97-1.723-2.216-1.579 1.228 1.724 2.216 1.578-1.228Zm-1.627-1.137c.933-1.777 2.192-3.069 3.773-3.918l-.946-1.762c-1.964 1.055-3.496 2.652-4.598 4.75l1.771.93Zm3.786-3.925c1.61-.894 3.442-1.351 5.522-1.351v-2c-2.385 0-4.557.527-6.493 1.603l.971 1.748Z" fill="#fff" mask="url(#a)"/></svg>